<svg width="57" height="57" fill="none" xmlns="http://www.w3.org/2000/svg">
  <path d="M24.662 2.757a7.222 7.222 0 0 1 7.23 0l16.85 9.74a7.24 7.24 0 0 1 3.615 6.269v19.481a7.24 7.24 0 0 1-3.614 6.269l-16.852 9.74a7.222 7.222 0 0 1-7.229 0l-16.851-9.74a7.24 7.24 0 0 1-3.615-6.269V18.766a7.24 7.24 0 0 1 3.615-6.268l16.851-9.741Z" fill="#9C01EA"></path>
  <path opacity="0.55" d="M26.84 28.71c0-1.16.609-2.235 1.604-2.831l13.767-8.257c2.202-1.32 5.004.265 5.004 2.831v15.85c0 1.159-.61 2.234-1.604 2.83L31.844 47.39c-2.202 1.32-5.004-.265-5.004-2.831v-15.85Z" fill="url(#logo-mark_svg__a)"></path>
  <path opacity="0.55" d="M18.21 23.85c0-1.16.62-2.234 1.631-2.826l14.433-8.452c2.22-1.3 5.03.279 5.03 2.827V31.56a3.28 3.28 0 0 1-1.631 2.828L23.24 42.84c-2.22 1.3-5.03-.279-5.03-2.827V23.851Z" fill="url(#logo-mark_svg__b)"></path>
  <path opacity="0.55" d="M9.581 19.006c0-1.177.628-2.265 1.65-2.858l14.433-8.384c2.22-1.29 5.011.303 5.011 2.859v15.944a3.307 3.307 0 0 1-1.65 2.859l-14.433 8.383c-2.22 1.29-5.011-.302-5.011-2.858V19.006Z" fill="url(#logo-mark_svg__c)"></path>
  <defs>
    <linearGradient id="logo-mark_svg__a" x1="37.027" y1="20.684" x2="47.123" y2="40.577" gradientUnits="userSpaceOnUse">
      <stop stop-color="#3F0071"></stop>
      <stop offset="1" stop-color="#9A04CE" stop-opacity="0"></stop>
    </linearGradient>
    <linearGradient id="logo-mark_svg__b" x1="28.757" y1="15.699" x2="38.893" y2="36.06" gradientUnits="userSpaceOnUse">
      <stop stop-color="#3F0071"></stop>
      <stop offset="1" stop-color="#9A04CE" stop-opacity="0"></stop>
    </linearGradient>
    <linearGradient id="logo-mark_svg__c" x1="20.128" y1="10.872" x2="30.14" y2="31.138" gradientUnits="userSpaceOnUse">
      <stop stop-color="#3F0071"></stop>
      <stop offset="1" stop-color="#9A04CE" stop-opacity="0"></stop>
    </linearGradient>
  </defs>
</svg>